<?xml version="1.0" encoding="UTF-8" standalone="no"?>
<svg width="476px" height="77px" viewBox="0 0 476 77" version="1.1" xmlns="http://www.w3.org/2000/svg" xmlns:xlink="http://www.w3.org/1999/xlink">
    <!-- Generator: Sketch 40.1 (33804) - http://www.bohemiancoding.com/sketch -->
    <title>CornerstoneLabs</title>
    <desc>Created with Sketch.</desc>
    <defs></defs>
    <g id="Page-1" stroke="none" stroke-width="1" fill="none" fill-rule="evenodd">
        <g id="logo-right-light">
            <g id="Group">
                <g id="Mark_1_">
                    <g id="Group">
                        <rect id="Rectangle-path" fill="#2D394D" transform="translate(50.997550, 25.566260) rotate(45.000000) translate(-50.997550, -25.566260) " x="32.9477231" y="7.5164331" width="36.0996538" height="36.0996538"></rect>
                        <polygon id="Shape" fill="#4A5D7D" points="76.5 76.5 51 51 76.5 25.5 102 51"></polygon>
                        <polygon id="Shape" fill="#4A5D7D" points="25.5 76.5 0 51 25.5 25.5 51 51"></polygon>
                    </g>
                </g>
                <g id="Cornerstone_1_" transform="translate(127.000000, 19.000000)" fill="#4A5D7D">
                    <g id="Group">
                        <path d="M22.7,26.1 C20.5,30.1 16.5,32 12.5,32 C6.6,32 0.6,27.7 0.6,19.2 C0.6,10.6 6.5,6.4 12.5,6.4 C16.4,6.4 20.3,8.2 22.5,11.8 L19.4,13.7 C17.9,11 15.2,9.6 12.5,9.6 C8.4,9.6 4.3,12.8 4.3,19.2 C4.3,25.6 8.4,28.8 12.5,28.8 C15.4,28.8 18.3,27.2 19.8,23.9 L22.7,26.1 L22.7,26.1 Z" id="Shape"></path>
                        <path d="M38.5,32 C32.3,32 26,27.7 26,19.2 C26,10.7 32.2,6.4 38.4,6.4 C44.6,6.4 50.9,10.7 50.9,19.2 C50.9,27.8 44.7,32 38.5,32 L38.5,32 Z M38.4,28.8 C42.8,28.8 47.2,25.6 47.2,19.2 C47.2,12.8 42.8,9.6 38.4,9.6 C34,9.6 29.7,12.8 29.7,19.2 C29.7,25.6 34.1,28.8 38.4,28.8 L38.4,28.8 Z" id="Shape"></path>
                        <path d="M59.5,10.7 C60.9,7.7 63.3,6.7 66.3,6.7 L68.5,6.7 L67.5,10.7 L66.4,10.7 C61.2,10.7 59.2,13.2 59.2,18.5 L59.2,31.6 L55.2,31.6 L55.2,6.8 L59.2,6.8 L59.2,10.8 L59.5,10.8 L59.5,10.7 Z" id="Shape"></path>
                        <path d="M98.6,19.2 C98.6,10.6 104.5,6.4 110.7,6.4 C115.9,6.4 121.5,10.6 121.5,19 L121.5,20.8 L102.4,20.8 C103,26.1 106.8,28.8 110.7,28.8 C113.6,28.8 116.5,27.2 118,23.9 L121,26 C118.8,30 114.8,31.9 110.7,31.9 C104.6,32 98.6,27.8 98.6,19.2 L98.6,19.2 Z M102.4,17.6 L117.8,17.6 C117.8,12.3 114.3,9.6 110.7,9.6 C106.8,9.6 103,12.3 102.4,17.6 L102.4,17.6 Z" id="Shape"></path>
                        <path d="M130.5,10.7 C131.9,7.7 134.3,6.7 137.3,6.7 L139.5,6.7 L138.5,10.7 L137.4,10.7 C132.2,10.7 130.2,13.2 130.2,18.5 L130.2,31.6 L126.2,31.6 L126.2,6.8 L130.2,6.8 L130.2,10.8 L130.5,10.8 L130.5,10.7 Z" id="Shape"></path>
                        <path d="M145.2,24 C145.5,27.4 148.5,28.8 151.3,28.8 C154.1,28.8 156.7,27.5 156.7,25.3 C156.7,19.6 142.4,21.3 142.4,13.2 C142.4,8.7 146.8,6.4 151.2,6.4 C155,6.4 158.9,8.1 159.7,11.5 L156.1,12.5 C155.9,10.5 153.4,9.5 151,9.5 C148.6,9.5 146.2,10.5 146.2,12.7 C146.2,18.3 160.5,16.3 160.5,24.9 C160.5,29.6 156.1,32 151.5,32 C147,32 142.3,29.7 141.6,24.8 L145.2,24 L145.2,24 Z" id="Shape"></path>
                        <path d="M167.2,10.7 L163.4,10.7 L164.4,6.7 L167.2,6.7 L167.2,0.8 L171.2,0.8 L171.2,6.7 L178.2,6.7 L177.2,10.7 L171.2,10.7 L171.2,25.4 C171.2,27.6 172.3,28.2 174,28.2 C174.3,28.2 174.7,28.2 175.1,28.1 L176.3,31.6 C175.2,31.9 174.4,32 173.5,32 C170,32 167.3,29.8 167.3,25.5 L167.3,10.7 L167.2,10.7 Z" id="Shape"></path>
                        <path d="M192.3,32 C186.1,32 179.8,27.7 179.8,19.2 C179.8,10.7 186,6.4 192.2,6.4 C198.4,6.4 204.7,10.7 204.7,19.2 C204.7,27.8 198.6,32 192.3,32 L192.3,32 Z M192.3,28.8 C196.7,28.8 201.1,25.6 201.1,19.2 C201.1,12.8 196.7,9.6 192.3,9.6 C187.9,9.6 183.6,12.8 183.6,19.2 C183.6,25.6 187.9,28.8 192.3,28.8 L192.3,28.8 Z" id="Shape"></path>
                        <path d="M77.1,10.8 C78.9,8.1 82,6.4 85.2,6.4 C89.9,6.4 94.2,9.5 94.2,16 L94.2,31.7 L90.5,31.7 L90.5,15.9 C90.5,11.2 87.6,9.6 84.6,9.6 C80.3,9.6 76.8,13.1 76.8,21.4 L76.8,31.6 L73.1,31.6 L73.1,6.8 L76.8,6.8 L76.8,10.7 L77.1,10.7 L77.1,10.8 Z" id="Shape"></path>
                        <path d="M234.5,19.2 C234.5,10.6 240.4,6.4 246.6,6.4 C251.8,6.4 257.4,10.6 257.4,19 L257.4,20.8 L238.3,20.8 C238.9,26.1 242.7,28.8 246.6,28.8 C249.5,28.8 252.4,27.2 253.9,23.9 L256.9,26 C254.7,30 250.7,31.9 246.6,31.9 C240.5,32 234.5,27.7 234.5,19.2 L234.5,19.2 Z M238.3,17.6 L253.7,17.6 C253.7,12.3 250.2,9.6 246.6,9.6 C242.7,9.6 238.9,12.2 238.3,17.6 L238.3,17.6 Z" id="Shape"></path>
                        <path d="M212.9,10.8 C214.7,8.1 217.8,6.4 221,6.4 C225.7,6.4 230,9.5 230,16 L230,31.7 L226.3,31.7 L226.3,15.9 C226.3,11.2 223.4,9.6 220.4,9.6 C216.1,9.6 212.6,13.1 212.6,21.4 L212.6,31.6 L208.9,31.6 L208.9,6.8 L212.6,6.8 L212.6,10.7 L212.9,10.7 L212.9,10.8 Z" id="Shape"></path>
                    </g>
                </g>
                <g id="Labs_1_" transform="translate(390.000000, 15.000000)" fill="#2D394D">
                    <g id="Group">
                        <polygon id="Shape" points="6.9 35.6 0.4 35.6 0.4 0 6.9 0"></polygon>
                        <path d="M21.5,20.6 L26.3,20.6 L26.3,19.7 C26.3,17 24.5,15.8 22.3,15.8 C20.3,15.8 18.4,16.9 18.4,19.4 L11.9,18.4 C12.7,13.2 17.3,10.4 22.3,10.4 C27.5,10.4 32.8,13.6 32.8,19.8 L32.8,35.7 L26.4,35.7 L26.4,32.6 L26.1,32.6 C24,34.8 21.5,36.1 18.3,36.1 C14,36.1 11.1,33.2 11.1,28.9 C11.1,24.3 14.3,20.6 21.5,20.6 L21.5,20.6 Z M26.3,25.6 L21.3,25.6 C18.7,25.6 17.6,26.7 17.6,28.2 C17.6,29.9 18.8,30.6 20.7,30.6 C23.6,30.6 26.1,28.9 26.3,25.6 L26.3,25.6 Z" id="Shape"></path>
                        <path d="M44,35.6 L37.5,35.6 L37.5,0 L44,0 L44,13.7 L44.3,13.7 C46.4,11.5 49.2,10.4 51.9,10.4 C57.4,10.4 62.8,14.8 62.8,23.2 C62.8,31.7 57.4,36 51.9,36 C49.2,36 46.5,34.9 44.3,32.7 L44,32.7 L44,35.6 L44,35.6 Z M49.9,30.1 C53.1,30.1 56.2,27.8 56.2,23.2 C56.2,18.6 53.1,16.3 49.9,16.3 C46.7,16.3 43.6,18.6 43.6,23.2 C43.7,27.8 46.8,30.1 49.9,30.1 L49.9,30.1 Z" id="Shape"></path>
                        <path d="M71,27.2 C71.1,29.7 73.2,30.6 75.5,30.6 C77.4,30.6 78.9,30.1 78.9,28.8 C78.9,25.5 65.5,25.9 65.5,17.7 C65.5,12.9 70.2,10.4 75,10.4 C79.6,10.4 83.9,12.6 84.6,16.8 L78.3,17.8 C78.2,16.3 76.8,15.8 75,15.8 C73.4,15.8 72,16.2 72,17.4 C72,20.6 85.4,20 85.4,28.4 C85.4,33.4 80.5,36 75.5,36 C70.3,36 65.4,33.3 64.7,28 L71,27.2 L71,27.2 Z" id="Shape"></path>
                    </g>
                </g>
            </g>
        </g>
    </g>
</svg>